<?xml version="1.0" encoding="utf-8"?>
<!-- Generator: Adobe Illustrator 24.2.1, SVG Export Plug-In . SVG Version: 6.00 Build 0)  -->
<svg version="1.1" id="Capa_1" xmlns="http://www.w3.org/2000/svg" xmlns:xlink="http://www.w3.org/1999/xlink" x="0px" y="0px" viewBox="0 0 696 356" style="enable-background:new 0 0 696 356;" xml:space="preserve">
<style>
	.st0{fill:#0642FF;}
	.st1{fill:#0A5BFF;}
	.st2{fill:#0D6AFF;}
	.st3{fill:#0084FF;}
	.st4{fill:#50A700;}
	.st5{fill:#308D00;}
	.st6{fill:#6BBD00;}
	.st7{fill:#7CDB00;}
	.st8{fill:#FAC80A;}
	.st9{fill:#D8A505;}
	.st10{fill:#FFDE3E;}
	.st11{fill:#E11415;}
	.st12{fill:#B00A0B;}
	.st13{fill:#FF2121;}

</style>
<g>
	<g>
		<g id="Grupo_37_1_">
			<path id="Trazado_63_2_" class="st0" d="M375.4,124.1v121.9c-1.1,23-20.7,40.7-43.6,39.5c-21.4-1.1-38.5-18.2-39.5-39.5V124.1
				H233v121.9c-0.3,26.4,10.4,51.8,29.6,70.1c39.9,37.7,102.3,37.7,142.2,0c19.3-18.2,30.3-43.5,30.5-70.1V124.1L375.4,124.1z"></path>
			<path id="Trazado_63_1_" class="st0" d="M202.7,344.3V222.4c-0.2-26.5-11.2-51.8-30.5-70.1c-39.9-37.7-102.3-37.7-142.2,0
				C10.9,170.6,0.2,196,0.5,222.4v121.9h59.2V222.4c1.1-21.4,18.2-38.5,39.5-39.5c23-1.1,42.5,16.6,43.6,39.5v121.9L202.7,344.3z"></path>
			<path id="Trazado_65_1_" class="st0" d="M522.5,122.7V76.4c0-11.4,8.9-20.9,20.3-21.5h40.6v-55H542c-20.3,0.2-39.8,8.1-54.5,22.1
				c-14.2,14.4-22.2,33.8-22,54v268.3h56.9V179.3h62.5v-56.7H522.5z"></path>
		</g>
	</g>
	<g>
		<polygon class="st1" points="695.5,299.9 695.4,344.1 655.6,356.2 655.7,312 		"></polygon>
		<polygon class="st0" points="655.7,312 655.6,356.2 615.6,344.1 615.6,299.8 		"></polygon>
		<polygon class="st2" points="695.5,299.9 655.7,312 615.6,299.8 655.4,287.8 		"></polygon>
		<path class="st0" d="M674.6,301.6c0.1-0.1,0.2-0.2,0.3-0.3c0-0.1,0.1-0.1,0.1-0.2c0.1-0.1,0.1-0.2,0.2-0.4c0-0.1,0.1-0.1,0.1-0.2
			c0.1-0.2,0.1-0.4,0.1-0.6l0-8.8c0,0.2,0,0.4-0.1,0.6c0,0.1-0.1,0.1-0.1,0.2c0,0.1-0.1,0.2-0.2,0.4c0,0.1-0.1,0.1-0.1,0.2
			c-0.1,0.1-0.2,0.2-0.3,0.3c-0.1,0.1-0.1,0.1-0.2,0.2c-0.1,0.1-0.2,0.2-0.3,0.3c-0.1,0.1-0.3,0.2-0.5,0.3c-0.1,0.1-0.2,0.2-0.3,0.2
			c-0.2,0.1-0.4,0.2-0.6,0.3c-0.1,0.1-0.3,0.1-0.4,0.2c-0.2,0.1-0.5,0.2-0.8,0.4c-0.1,0.1-0.3,0.1-0.4,0.2c-0.4,0.2-0.9,0.3-1.4,0.5
			c-0.6,0.2-1.2,0.3-1.8,0.5c-0.5,0.1-0.9,0.3-1.4,0.4c-0.6,0.1-1.2,0.2-1.9,0.3c-0.5,0.1-1,0.2-1.6,0.3c-0.7,0.1-1.3,0.1-2,0.2
			c-0.5,0-1.1,0.1-1.6,0.2c-0.7,0-1.4,0.1-2.1,0.1c-0.5,0-1.1,0-1.6,0c-0.7,0-1.4,0-2.2-0.1c-0.5,0-1.1,0-1.6,0
			c-0.8,0-1.5-0.1-2.2-0.2c-0.5,0-1-0.1-1.4-0.1c-0.8-0.1-1.6-0.2-2.4-0.4c-0.4-0.1-0.7-0.1-1.1-0.2c-1.1-0.2-2.1-0.5-3.1-0.8
			c-3.9-1.2-5.9-2.8-5.9-4.4l0,8.8c0,1.6,2,3.2,5.9,4.4c1,0.3,2,0.6,3.1,0.8c0.3,0.1,0.7,0.1,1.1,0.2c0.8,0.1,1.5,0.3,2.4,0.4
			c0.5,0.1,1,0.1,1.4,0.1c0.7,0.1,1.5,0.2,2.2,0.2c0.5,0,1.1,0,1.6,0c0.7,0,1.4,0.1,2.2,0.1c0.5,0,1.1,0,1.6,0c0.7,0,1.4,0,2.1-0.1
			c0.6,0,1.1-0.1,1.6-0.2c0.7-0.1,1.4-0.1,2-0.2c0.5-0.1,1-0.2,1.6-0.3c0.6-0.1,1.3-0.2,1.9-0.3c0.5-0.1,0.9-0.2,1.4-0.4
			c0.5-0.1,1.1-0.2,1.6-0.4c0.1,0,0.2-0.1,0.2-0.1c0.5-0.2,1-0.3,1.4-0.5c0.1-0.1,0.3-0.1,0.4-0.2c0.3-0.1,0.6-0.2,0.8-0.4
			c0.1-0.1,0.3-0.1,0.4-0.2c0.2-0.1,0.4-0.2,0.6-0.3c0.1-0.1,0.2-0.2,0.3-0.2c0.2-0.1,0.3-0.2,0.5-0.3c0,0,0.1-0.1,0.1-0.1
			c0.1-0.1,0.1-0.1,0.2-0.2C674.4,301.8,674.5,301.7,674.6,301.6z"></path>
		<ellipse class="st3" cx="655.5" cy="291.2" rx="19.8" ry="6.2"></ellipse>
	</g>
	<g>
		<polygon class="st4" points="695.5,245.9 695.4,290.1 655.6,302.1 655.7,257.9 		"></polygon>
		<polygon class="st5" points="655.7,257.9 655.6,302.1 615.6,290 615.6,245.8 		"></polygon>
		<polygon class="st6" points="695.5,245.9 655.7,257.9 615.6,245.8 655.4,233.7 		"></polygon>
		<path class="st5" d="M674.6,247.6c0.1-0.1,0.2-0.2,0.3-0.3c0-0.1,0.1-0.1,0.1-0.2c0.1-0.1,0.1-0.2,0.2-0.4c0-0.1,0.1-0.1,0.1-0.2
			c0.1-0.2,0.1-0.4,0.1-0.6l0-8.8c0,0.2,0,0.4-0.1,0.6c0,0.1-0.1,0.1-0.1,0.2c0,0.1-0.1,0.2-0.2,0.4c0,0.1-0.1,0.1-0.1,0.2
			c-0.1,0.1-0.2,0.2-0.3,0.3c-0.1,0.1-0.1,0.1-0.2,0.2c-0.1,0.1-0.2,0.2-0.3,0.3c-0.1,0.1-0.3,0.2-0.5,0.3c-0.1,0.1-0.2,0.2-0.3,0.2
			c-0.2,0.1-0.4,0.2-0.6,0.3c-0.1,0.1-0.3,0.1-0.4,0.2c-0.2,0.1-0.5,0.2-0.8,0.4c-0.1,0.1-0.3,0.1-0.4,0.2c-0.4,0.2-0.9,0.3-1.4,0.5
			c-0.6,0.2-1.2,0.3-1.8,0.5c-0.5,0.1-0.9,0.3-1.4,0.4c-0.6,0.1-1.2,0.2-1.9,0.3c-0.5,0.1-1,0.2-1.6,0.3c-0.7,0.1-1.3,0.1-2,0.2
			c-0.5,0-1.1,0.1-1.6,0.2c-0.7,0-1.4,0.1-2.1,0.1c-0.5,0-1.1,0-1.6,0c-0.7,0-1.4,0-2.2-0.1c-0.5,0-1.1,0-1.6,0
			c-0.8,0-1.5-0.1-2.2-0.2c-0.5,0-1-0.1-1.4-0.1c-0.8-0.1-1.6-0.2-2.4-0.4c-0.4-0.1-0.7-0.1-1.1-0.2c-1.1-0.2-2.1-0.5-3.1-0.8
			c-3.9-1.2-5.9-2.8-5.9-4.4l0,8.8c0,1.6,2,3.2,5.9,4.4c1,0.3,2,0.6,3.1,0.8c0.3,0.1,0.7,0.1,1.1,0.2c0.8,0.1,1.5,0.3,2.4,0.4
			c0.5,0.1,1,0.1,1.4,0.1c0.7,0.1,1.5,0.2,2.2,0.2c0.5,0,1.1,0,1.6,0c0.7,0,1.4,0.1,2.2,0.1c0.5,0,1.1,0,1.6,0c0.7,0,1.4,0,2.1-0.1
			c0.6,0,1.1-0.1,1.6-0.2c0.7-0.1,1.4-0.1,2-0.2c0.5-0.1,1-0.2,1.6-0.3c0.6-0.1,1.3-0.2,1.9-0.3c0.5-0.1,0.9-0.2,1.4-0.4
			c0.5-0.1,1.1-0.2,1.6-0.4c0.1,0,0.2-0.1,0.2-0.1c0.5-0.2,1-0.3,1.4-0.5c0.1-0.1,0.3-0.1,0.4-0.2c0.3-0.1,0.6-0.2,0.8-0.4
			c0.1-0.1,0.3-0.1,0.4-0.2c0.2-0.1,0.4-0.2,0.6-0.3c0.1-0.1,0.2-0.2,0.3-0.2c0.2-0.1,0.3-0.2,0.5-0.3c0,0,0.1-0.1,0.1-0.1
			c0.1-0.1,0.1-0.1,0.2-0.2C674.4,247.7,674.5,247.7,674.6,247.6z"></path>
		<ellipse class="st7" cx="655.5" cy="237.1" rx="19.8" ry="6.2"></ellipse>
	</g>
	<g>
		<polygon class="st8" points="695.5,191.8 695.4,236 655.6,248.1 655.7,203.9 		"></polygon>
		<polygon class="st9" points="655.7,203.9 655.6,248.1 615.6,236 615.6,191.7 		"></polygon>
		<polygon class="st10" points="695.5,191.8 655.7,203.9 615.6,191.7 655.4,179.7 		"></polygon>
		<path class="st9" d="M674.6,193.5c0.1-0.1,0.2-0.2,0.3-0.3c0-0.1,0.1-0.1,0.1-0.2c0.1-0.1,0.1-0.2,0.2-0.4c0-0.1,0.1-0.1,0.1-0.2
			c0.1-0.2,0.1-0.4,0.1-0.6l0-8.8c0,0.2,0,0.4-0.1,0.6c0,0.1-0.1,0.1-0.1,0.2c0,0.1-0.1,0.2-0.2,0.4c0,0.1-0.1,0.1-0.1,0.2
			c-0.1,0.1-0.2,0.2-0.3,0.3c-0.1,0.1-0.1,0.1-0.2,0.2c-0.1,0.1-0.2,0.2-0.3,0.3c-0.1,0.1-0.3,0.2-0.5,0.3c-0.1,0.1-0.2,0.2-0.3,0.2
			c-0.2,0.1-0.4,0.2-0.6,0.3c-0.1,0.1-0.3,0.1-0.4,0.2c-0.2,0.1-0.5,0.2-0.8,0.4c-0.1,0.1-0.3,0.1-0.4,0.2c-0.4,0.2-0.9,0.3-1.4,0.5
			c-0.6,0.2-1.2,0.3-1.8,0.5c-0.5,0.1-0.9,0.3-1.4,0.4c-0.6,0.1-1.2,0.2-1.9,0.3c-0.5,0.1-1,0.2-1.6,0.3c-0.7,0.1-1.3,0.1-2,0.2
			c-0.5,0-1.1,0.1-1.6,0.2c-0.7,0-1.4,0.1-2.1,0.1c-0.5,0-1.1,0-1.6,0c-0.7,0-1.4,0-2.2-0.1c-0.5,0-1.1,0-1.6,0
			c-0.8,0-1.5-0.1-2.2-0.2c-0.5,0-1-0.1-1.4-0.1c-0.8-0.1-1.6-0.2-2.4-0.4c-0.4-0.1-0.7-0.1-1.1-0.2c-1.1-0.2-2.1-0.5-3.1-0.8
			c-3.9-1.2-5.9-2.8-5.9-4.4l0,8.8c0,1.6,2,3.2,5.9,4.4c1,0.3,2,0.6,3.1,0.8c0.3,0.1,0.7,0.1,1.1,0.2c0.8,0.1,1.5,0.3,2.4,0.4
			c0.5,0.1,1,0.1,1.4,0.1c0.7,0.1,1.5,0.2,2.2,0.2c0.5,0,1.1,0,1.6,0c0.7,0,1.4,0.1,2.2,0.1c0.5,0,1.1,0,1.6,0c0.7,0,1.4,0,2.1-0.1
			c0.6,0,1.1-0.1,1.6-0.2c0.7-0.1,1.4-0.1,2-0.2c0.5-0.1,1-0.2,1.6-0.3c0.6-0.1,1.3-0.2,1.9-0.3c0.5-0.1,0.9-0.2,1.4-0.4
			c0.5-0.1,1.1-0.2,1.6-0.4c0.1,0,0.2-0.1,0.2-0.1c0.5-0.2,1-0.3,1.4-0.5c0.1-0.1,0.3-0.1,0.4-0.2c0.3-0.1,0.6-0.2,0.8-0.4
			c0.1-0.1,0.3-0.1,0.4-0.2c0.2-0.1,0.4-0.2,0.6-0.3c0.1-0.1,0.2-0.2,0.3-0.2c0.2-0.1,0.3-0.2,0.5-0.3c0,0,0.1-0.1,0.1-0.1
			c0.1-0.1,0.1-0.1,0.2-0.2C674.4,193.7,674.5,193.6,674.6,193.5z"></path>
		<ellipse class="st8" cx="655.5" cy="183.1" rx="19.8" ry="6.2"></ellipse>
	</g>
	<g>
		<polygon class="st11" points="695,123 694.9,167.2 655.1,179.3 655.2,135.1 		"></polygon>
		<polygon class="st12" points="655.2,135.1 655.1,179.3 615.1,167.1 615.1,122.9 		"></polygon>
		<polygon class="st13" points="695,123 655.2,135.1 615.1,122.9 654.9,110.8 		"></polygon>
		<path class="st12" d="M674.1,124.7c0.1-0.1,0.2-0.2,0.3-0.3c0-0.1,0.1-0.1,0.1-0.2c0.1-0.1,0.1-0.2,0.2-0.4c0-0.1,0.1-0.1,0.1-0.2
			c0.1-0.2,0.1-0.4,0.1-0.6l0-8.8c0,0.2,0,0.4-0.1,0.6c0,0.1-0.1,0.1-0.1,0.2c0,0.1-0.1,0.2-0.2,0.4c0,0.1-0.1,0.1-0.1,0.2
			c-0.1,0.1-0.2,0.2-0.3,0.3c-0.1,0.1-0.1,0.1-0.2,0.2c-0.1,0.1-0.2,0.2-0.3,0.3c-0.1,0.1-0.3,0.2-0.5,0.3c-0.1,0.1-0.2,0.2-0.3,0.2
			c-0.2,0.1-0.4,0.2-0.6,0.3c-0.1,0.1-0.3,0.1-0.4,0.2c-0.2,0.1-0.5,0.2-0.8,0.4c-0.1,0.1-0.3,0.1-0.4,0.2c-0.4,0.2-0.9,0.3-1.4,0.5
			c-0.6,0.2-1.2,0.3-1.8,0.5c-0.5,0.1-0.9,0.3-1.4,0.4c-0.6,0.1-1.2,0.2-1.9,0.3c-0.5,0.1-1,0.2-1.6,0.3c-0.7,0.1-1.3,0.1-2,0.2
			c-0.5,0-1.1,0.1-1.6,0.2c-0.7,0-1.4,0.1-2.1,0.1c-0.5,0-1.1,0-1.6,0c-0.7,0-1.4,0-2.2-0.1c-0.5,0-1.1,0-1.6,0
			c-0.8,0-1.5-0.1-2.2-0.2c-0.5,0-1-0.1-1.4-0.1c-0.8-0.1-1.6-0.2-2.4-0.4c-0.4-0.1-0.7-0.1-1.1-0.2c-1.1-0.2-2.1-0.5-3.1-0.8
			c-3.9-1.2-5.9-2.8-5.9-4.4l0,8.8c0,1.6,2,3.2,5.9,4.4c1,0.3,2,0.6,3.1,0.8c0.3,0.1,0.7,0.1,1.1,0.2c0.8,0.1,1.5,0.3,2.4,0.4
			c0.5,0.1,1,0.1,1.4,0.1c0.7,0.1,1.5,0.2,2.2,0.2c0.5,0,1.1,0,1.6,0c0.7,0,1.4,0.1,2.2,0.1c0.5,0,1.1,0,1.6,0c0.7,0,1.4,0,2.1-0.1
			c0.6,0,1.1-0.1,1.6-0.2c0.7-0.1,1.4-0.1,2-0.2c0.5-0.1,1-0.2,1.6-0.3c0.6-0.1,1.3-0.2,1.9-0.3c0.5-0.1,0.9-0.2,1.4-0.4
			c0.5-0.1,1.1-0.2,1.6-0.4c0.1,0,0.2-0.1,0.2-0.1c0.5-0.2,1-0.3,1.4-0.5c0.1-0.1,0.3-0.1,0.4-0.2c0.3-0.1,0.6-0.2,0.8-0.4
			c0.1-0.1,0.3-0.1,0.4-0.2c0.2-0.1,0.4-0.2,0.6-0.3c0.1-0.1,0.2-0.2,0.3-0.2c0.2-0.1,0.3-0.2,0.5-0.3c0,0,0.1-0.1,0.1-0.1
			c0.1-0.1,0.1-0.1,0.2-0.2C673.9,124.9,674,124.8,674.1,124.7z"></path>
		<ellipse class="st11" cx="655" cy="114.2" rx="19.8" ry="6.2"></ellipse>
	</g>
</g>
</svg>
